<svg width="75" height="75" viewBox="0 0 75 75" fill="none" xmlns="http://www.w3.org/2000/svg">
<path d="M29.167 12.5V4.16663M29.167 70.8333V62.5M45.8337 12.5V4.16663M45.8337 70.8333V62.5M63.4262 29.1666H70.8337M4.16699 29.1666H11.5744M63.4262 45.8333H70.8337M4.16699 45.8333H11.5744M29.167 29.1666H45.8337V45.8333H29.167V29.1666ZM20.8336 62.5H54.167C58.7695 62.5 62.5003 58.7691 62.5003 54.1666V20.8333C62.5003 16.2309 58.7695 12.5 54.167 12.5H20.8336C16.2312 12.5 12.5002 16.2309 12.5002 20.8333V54.1666C12.5002 58.7691 16.2312 62.5 20.8336 62.5Z" stroke="white" stroke-width="8.33333" stroke-linecap="round" stroke-linejoin="round"/>
</svg>
