<svg width="63" height="83" viewBox="0 0 63 83" fill="none" xmlns="http://www.w3.org/2000/svg">
<path d="M36.6575 0.0296798C35.4433 -0.184029 34.375 0.784888 34.375 2.01789V13.9378C34.375 14.7643 34.8787 15.492 35.5662 15.9511C37.6629 17.3519 39.0417 19.7434 39.0417 22.4646V30.7979C39.0417 35.0898 35.5417 38.6314 31.25 38.6314C26.9167 38.6314 23.4167 35.0898 23.4167 30.7979V22.4646C23.4167 19.7426 24.8262 17.3505 26.9329 15.9499C27.6212 15.4924 28.125 14.7643 28.125 13.9378V2.02056C28.125 0.786596 27.0562 -0.182737 25.8412 0.0315544C19.3851 1.16993 13.6075 4.27381 9.16666 8.7146C3.5 14.3813 0 22.2146 0 30.7979V51.6314C0 68.8398 14.0417 82.8815 31.25 82.8815C48.4583 82.8815 62.5 68.8398 62.5 51.6314V30.7979C62.5 15.4209 51.3042 2.60718 36.6575 0.0296798Z" fill="white"/>
</svg>
