<svg width="68" height="59" viewBox="0 0 68 59" fill="none" xmlns="http://www.w3.org/2000/svg">
<path d="M14.7619 32.4469C17.1881 29.8453 20.1218 27.7683 23.3818 26.3438C26.6418 24.9198 30.1564 24.1792 33.7142 24.1667C37.2715 24.1547 40.7934 24.8714 44.0637 26.273C47.3335 27.6745 50.2824 29.7308 52.7267 32.3157M3.33301 16.5828C7.21504 12.4198 11.9088 9.09639 17.1249 6.81769C22.3409 4.53889 27.9725 3.35347 33.6647 3.33363C39.3569 3.31373 44.9897 4.46087 50.222 6.70321C55.4538 8.94535 60.1678 12.2313 64.0793 16.3672M33.8048 55.4167C30.9283 55.4167 28.5965 53.0849 28.5965 50.2084C28.5965 47.3323 30.9283 45 33.8048 45C36.6814 45 39.0132 47.3323 39.0132 50.2084C39.0132 53.0849 36.6814 55.4167 33.8048 55.4167Z" stroke="white" stroke-width="6.66667" stroke-linecap="round" stroke-linejoin="round"/>
</svg>
