<svg width="80" height="80" viewBox="0 0 80 80" fill="none" xmlns="http://www.w3.org/2000/svg">
<g clip-path="url(#clip0_773_907)">
<path d="M72.4242 36.9431C71.7013 29.1725 68.2469 22.1777 63.033 16.9683C57.8234 11.7544 50.8275 8.29891 43.057 7.57578V0H36.9431V7.57578C29.1748 8.29875 22.1789 11.7542 16.9695 16.9683C11.7555 22.1777 8.30125 29.1727 7.57578 36.9431H0V43.057H7.57563C8.30109 50.8277 11.7553 57.8223 16.9694 63.0317C22.1787 68.2445 29.1747 71.7 36.943 72.4242V80H43.0569V72.4244C50.8273 71.7 57.8233 68.2447 63.0328 63.0319C68.2467 57.8225 71.7011 50.8277 72.4241 43.0572H80V36.9433L72.4242 36.9431ZM66.0864 43.057C65.388 49.0914 62.6545 54.4902 58.5756 58.5745C54.49 62.6545 49.0925 65.3858 43.0569 66.0855V55.2513H36.943V66.0844C30.9097 65.3859 25.5098 62.6547 21.4266 58.5747C17.3455 54.4903 14.6142 49.0916 13.9158 43.0572H24.7489V36.9433H13.9158C14.6142 30.9088 17.3455 25.5102 21.4266 21.4256C25.51 17.3456 30.9097 14.6133 36.943 13.9148V24.7491H43.0569V13.9147C49.0923 14.6131 54.4898 17.3455 58.5756 21.4255C62.6545 25.51 65.388 30.9086 66.0864 36.9431H55.2511V43.057H66.0864Z" fill="white"/>
<path d="M40.0011 36.5615C38.1005 36.5615 36.5625 38.1017 36.5625 40.0001C36.5625 41.8986 38.1005 43.4387 40.0012 43.4387C41.8997 43.4387 43.4398 41.8984 43.4398 40.0001C43.4397 38.1017 41.8995 36.5615 40.0011 36.5615Z" fill="white"/>
</g>
<defs>
<clipPath id="clip0_773_907">
<rect width="80" height="80" fill="white"/>
</clipPath>
</defs>
</svg>
