<svg width="170" height="170" viewBox="0 0 170 170" fill="none" xmlns="http://www.w3.org/2000/svg">
<g clip-path="url(#clip0_792_1022)">
<path d="M31.0576 72.5767H91.3097L117.771 46.1171L118.02 45.8684V41.5188H31.0576V72.5767Z" fill="white"/>
<path d="M133.547 144.01H15.5291V25.99H133.547V30.3699L149.076 18.7836V10.4609H0V159.539H149.076V96.0247L133.547 111.554V144.01Z" fill="white"/>
<path d="M76.1538 91.2117H31.0576V100.529H71.0594C72.5824 97.238 74.3522 94.0685 76.1538 91.2117Z" fill="white"/>
<path d="M31.0576 116.058V125.375H67.8915C66.8041 122.455 66.4631 119.288 66.6799 116.058H31.0576Z" fill="white"/>
<path d="M96.6008 89.2464C91.454 94.3932 78.1359 116.061 83.283 121.211C88.4328 126.361 110.098 113.04 115.248 107.893L136.416 86.7196L117.771 68.076L96.6008 89.2464Z" fill="white"/>
<path d="M166.14 38.3525C160.989 33.2054 152.643 33.2054 147.496 38.3525L122.035 63.8144L140.681 82.4579L166.14 56.9961C171.286 51.8493 171.286 43.5024 166.14 38.3525ZM132.867 67.1901L129.668 63.9933L147.493 46.1686L150.686 49.362L132.867 67.1901Z" fill="white"/>
</g>
<defs>
<clipPath id="clip0_792_1022">
<rect width="170" height="170" fill="white"/>
</clipPath>
</defs>
</svg>
