<svg width="170" height="170" viewBox="0 0 170 170" fill="none" xmlns="http://www.w3.org/2000/svg">
<g clip-path="url(#clip0_792_1031)">
<path d="M140.361 95.458V79.7158C140.361 49.062 115.518 24.2188 84.8596 24.2188C54.2104 24.2188 29.3672 49.062 29.3672 79.7158V95.458C29.3672 126.108 54.2104 150.95 84.8596 150.95C115.518 150.95 140.361 126.108 140.361 95.458ZM84.8596 140.861C59.8234 140.861 39.4609 120.494 39.4609 95.458V79.7158C39.4609 77.9813 39.5752 76.268 39.7681 74.5859C66.298 72.5695 84.5963 67.255 96.8861 61.7077C104.572 66.6138 115.246 71.7879 130.101 76.2902C130.189 77.4231 130.268 78.5567 130.268 79.7161V95.4584C130.267 120.494 109.905 140.861 84.8596 140.861Z" fill="white"/>
<path d="M161.497 60.4559C152.615 26.1694 121.527 0.764336 84.4907 0.755371C47.3317 0.764336 16.1639 26.345 7.40562 60.8119C3.05701 62.6782 0 66.9959 0 72.0295V102.548C0 109.285 5.46424 114.753 12.2018 114.753C18.9397 114.753 24.4126 109.285 24.4126 102.548V72.0295C24.4126 67.2812 21.6627 63.2144 17.7009 61.1937C21.004 49.7343 27.1266 39.4606 35.349 31.2338C47.9549 18.6279 65.3135 10.8405 84.4903 10.8405C103.676 10.8405 121.034 18.6283 133.64 31.2338C141.977 39.5748 148.143 50.0242 151.403 61.6771C147.933 63.8247 145.587 67.6417 145.587 72.0295V102.548C145.587 107.384 148.425 111.53 152.509 113.502C150.884 119.625 148.548 125.432 145.772 130.54C143.048 135.551 139.913 139.878 136.671 143.189C134.247 141.363 131.26 140.242 127.992 140.242C119.989 140.242 113.497 146.734 113.497 154.742C113.497 162.748 119.989 169.245 127.992 169.245C136.003 169.245 142.495 162.748 142.495 154.742C142.495 152.958 142.135 151.267 141.537 149.686L142.284 148.992C150.321 140.783 157.033 128.335 160.52 114.425C165.941 113.181 169.999 108.345 169.999 102.548V72.0299C170 66.5919 166.416 62.0327 161.497 60.4559Z" fill="white"/>
<path d="M62.9946 83.0891C59.1643 83.0891 56.0635 86.1943 56.0635 90.0292C56.0635 93.8592 59.1643 96.9604 62.9946 96.9604C66.8249 96.9604 69.9347 93.8592 69.9347 90.0292C69.9347 86.1946 66.8249 83.0891 62.9946 83.0891Z" fill="white"/>
<path d="M105.995 83.0891C102.165 83.0891 99.0557 86.1943 99.0557 90.0292C99.0557 93.8592 102.165 96.9604 105.995 96.9604C109.825 96.9604 112.927 93.8592 112.927 90.0292C112.927 86.1946 109.825 83.0891 105.995 83.0891Z" fill="white"/>
</g>
<defs>
<clipPath id="clip0_792_1031">
<rect width="170" height="170" fill="white"/>
</clipPath>
</defs>
</svg>
